<svg xmlns="http://www.w3.org/2000/svg" viewBox="0 0 650 650"><defs><style>.cls-1{fill:#fcc59d;}.cls-2,.cls-23,.cls-3,.cls-30,.cls-34,.cls-35,.cls-36,.cls-5,.cls-6{fill:none;}.cls-2,.cls-32,.cls-33{stroke:#fcc59d;}.cls-10,.cls-11,.cls-12,.cls-2,.cls-23,.cls-29,.cls-3,.cls-30,.cls-32,.cls-33,.cls-34,.cls-35,.cls-4,.cls-5,.cls-6,.cls-7,.cls-8,.cls-9{stroke-linecap:round;}.cls-13,.cls-14,.cls-15,.cls-16,.cls-17,.cls-18,.cls-19,.cls-2,.cls-21,.cls-22,.cls-23,.cls-24,.cls-25,.cls-3,.cls-30,.cls-31,.cls-35,.cls-36{stroke-miterlimit:10;}.cls-2,.cls-32,.cls-35{stroke-width:60px;}.cls-3,.cls-34{stroke:#f15a29;stroke-width:15px;opacity:0.35;}.cls-11,.cls-19,.cls-4{fill:#fff;}.cls-10,.cls-11,.cls-12,.cls-13,.cls-14,.cls-15,.cls-16,.cls-17,.cls-18,.cls-21,.cls-22,.cls-23,.cls-24,.cls-25,.cls-4,.cls-5,.cls-6,.cls-7,.cls-8,.cls-9{stroke:#231f20;}.cls-10,.cls-11,.cls-12,.cls-29,.cls-32,.cls-33,.cls-34,.cls-4,.cls-5,.cls-6,.cls-7,.cls-8,.cls-9{stroke-linejoin:round;}.cls-4{stroke-width:6px;}.cls-5{stroke-width:10px;}.cls-6{stroke-width:3px;}.cls-7{fill:#70758c;}.cls-8{fill:#e8b04e;}.cls-9{fill:#d07428;}.cls-10{fill:#f1d176;}.cls-12{fill:#c8cbcd;}.cls-13{fill:#c46728;}.cls-13,.cls-18{stroke-width:1.5px;}.cls-14{fill:#cea86f;}.cls-15{fill:#4b2616;}.cls-16{fill:#592c14;}.cls-17{fill:#e79f24;}.cls-18{fill:#c15e2b;}.cls-19{stroke:#2b2514;}.cls-20{fill:#272211;}.cls-21{fill:#94231f;}.cls-21,.cls-22,.cls-23,.cls-25{stroke-width:0.75px;}.cls-22{fill:#b75148;}.cls-24,.cls-25{fill:#414042;}.cls-26{fill:#bf8244;}.cls-27{fill:#a78076;}.cls-28{fill:#d8bcae;}.cls-29,.cls-31{fill:#f8d28b;}.cls-29,.cls-30,.cls-31{stroke:#dda649;}.cls-32,.cls-33{fill:#eebb94;}.cls-33{stroke-width:75px;}.cls-35{stroke:#fcc69d;}.cls-36{stroke:#ed1c24;stroke-width:50px;}</style></defs><g id="Layer_4" data-name="Layer 4"><path class="cls-1" d="M717.36,578.75c-5.64,30-55,57-87.9,98.32-45,56.56-76.84,81.59-100.53,80.16C461.56,753.13,412.1,693.38,365,652.17c-48.07-42.06,2.3-52.24,3.45-68.47,8.67-122,117.16-180.61,130.26-187.79,0,0,56,23.08,118.68,73.63S717.36,578.75,717.36,578.75Z"/><line class="cls-2" x1="492.64" y1="411.17" x2="395.35" y2="348.77"/><line class="cls-2" x1="427.8" y1="479.3" x2="355.47" y2="421.17"/><line class="cls-2" x1="394.84" y1="541.94" x2="341.98" y2="501.5"/><line class="cls-2" x1="402.53" y1="645.24" x2="323.53" y2="578.51"/><path class="cls-3" d="M383,367.55l87,54.84s-26.41,22.88-30.45,28.27"/><path class="cls-3" d="M397.72,509.75c1-5.2,7-13.24,9.29-17.77-63.29-50.83-13.47-10.08-66-53.55"/><path class="cls-3" d="M329.23,519.94l50.27,38.95a204.12,204.12,0,0,0-3.74,28.75"/><line class="cls-3" x1="381.48" y1="658.39" x2="309.31" y2="596.02"/></g><g id="Layer_6" data-name="Layer 6"><rect class="cls-4" x="393.94" y="244.49" width="230.95" height="473.74" rx="44.38" transform="translate(832.11 1103.52) rotate(-160.79)"/><line class="cls-5" x1="637.96" y1="280.4" x2="534.7" y2="244.43"/><line class="cls-6" x1="605.43" y1="514" x2="413.9" y2="447.28"/><line class="cls-6" x1="641.38" y1="410.8" x2="449.85" y2="344.08"/><line class="cls-6" x1="566.49" y1="625.76" x2="374.97" y2="559.03"/><circle class="cls-6" cx="563.25" cy="563.35" r="13.82"/><circle class="cls-6" cx="602.38" cy="451.04" r="13.82"/><circle class="cls-6" cx="636.55" cy="351.75" r="13.82"/><circle class="cls-6" cx="524.08" cy="678.77" r="13.82" transform="translate(-134.59 129.64) rotate(-12.51)"/></g><g id="Layer_8" data-name="Layer 8"><polygon class="cls-7" points="452.13 408.61 456.29 428.05 494.09 445.08 506.19 445.92 521.07 433.84 475.95 414.43 452.13 408.61"/><polyline class="cls-8" points="506.63 408.09 513.61 403.45 511.13 438.59 503.26 443.42"/><polygon class="cls-9" points="503.47 442.77 506.84 407.44 500.6 405.42 497.01 441.39 503.47 442.77"/><polygon class="cls-10" points="506.63 408.09 513.61 403.45 508.65 401.13 500.39 406.06 506.63 408.09"/><polyline class="cls-8" points="460.9 394.07 467.88 389.44 478.36 425.69 470.49 430.51"/><polygon class="cls-9" points="470.49 430.51 460.9 394.07 454.65 392.05 464.03 429.13 470.49 430.51"/><polyline class="cls-8" points="480.61 396.43 487.58 391.79 485.1 426.93 477.23 431.75"/><polygon class="cls-9" points="477.23 431.75 480.61 396.43 474.36 394.4 470.77 430.37 477.23 431.75"/><polygon class="cls-10" points="480.61 396.43 487.58 391.79 482.63 389.46 474.36 394.4 480.61 396.43"/><polyline class="cls-8" points="472.74 406.73 479.72 402.09 498.26 432.04 490.39 436.86"/><polygon class="cls-9" points="490.6 436.21 472.95 406.08 466.49 404.7 484.14 434.83 490.6 436.21"/><polygon class="cls-10" points="472.74 406.73 479.72 402.09 474.76 399.76 466.49 404.7 472.74 406.73"/><polyline class="cls-8" points="494.92 403.1 501.9 398.46 499.42 433.6 491.55 438.42"/><polygon class="cls-9" points="491.76 437.78 495.13 402.45 488.68 401.07 485.3 436.4 491.76 437.78"/><polygon class="cls-10" points="494.92 403.1 501.9 398.46 496.94 396.14 488.68 401.07 494.92 403.1"/><polyline class="cls-8" points="491.4 413.02 498.38 408.39 512.41 436.87 504.53 441.69"/><polygon class="cls-9" points="504.53 441.69 491.4 413.02 485.16 411 498.08 440.31 504.53 441.69"/><polygon class="cls-10" points="491.4 413.02 498.38 408.39 493.43 406.06 485.16 411 491.4 413.02"/><polygon class="cls-11" points="456.29 428.05 494.09 445.08 504.15 431.69 452.13 408.61 456.29 428.05"/><polygon class="cls-12" points="494.09 445.08 506.19 445.92 521.07 433.84 504.15 431.69 494.09 445.08"/><polygon class="cls-10" points="460.9 394.07 467.88 389.44 462.92 387.11 454.65 392.05 460.9 394.07"/></g><g id="Layer_7" data-name="Layer 7"><path class="cls-13" d="M485.16,334.23a8.67,8.67,0,0,1,9.23-11.38,92.66,92.66,0,0,1,17.74,3.53,63.69,63.69,0,0,1,13.32,6.21,8.88,8.88,0,0,1,3.86,4.93,8.53,8.53,0,0,1-2.82,9.37c-5.06,4-12.35,5-22.94,1.88S487.49,340.79,485.16,334.23Z"/><path class="cls-14" d="M529.31,337.52c-5.64,3.24-22.07-1.32-22.07-1.32-.64-.13-16.77-4-19.54-11.09,0,0,.42-2.88,7.29-2.15a83.79,83.79,0,0,1,17.14,3.42c4.22,1.41,11,4.09,13.32,6.21S530.09,337.07,529.31,337.52Z"/><path class="cls-15" d="M531.17,329.38,530,334.17a3,3,0,0,1-3,2.29c-4.42-.23-13.61-.85-18.18-2.38C502.63,332,488.38,326,487.6,325s2.36-5.88,2.36-5.88"/><path class="cls-16" d="M510.51,328.86a8.69,8.69,0,0,1-1.88-.5c-3.53-1.38-16.31-6.46-18.53-8.82-.16-.17-.2-.31-.14-.42.82-1.59,21.78,2.18,24.62,2.7.23,0,.44.09.66.15,2.29.6,15.32,4.15,15.94,7.1S514.81,329.51,510.51,328.86Z"/><path class="cls-17" d="M512.57,329.68c-.65-.09-5.52,1-6.13.75s-3.33-3.5-4.17-3.88c-3.57-1.64-6-2.56-9.6-4.13-1.29-.57-5.07-.9-5.2-1s2.15-3.12,2.21-3.23c.82-1.59,21.6,2.45,24.45,3q.33.06.66.15c1.76.46,13.5,3.91,17.36,7,1.16.93.84,5.6.16,5.76-.24.06-5.51-2.26-6.82-2.54C521.54,330.65,515.79,330.17,512.57,329.68Z"/><path class="cls-18" d="M535,317.51a8.68,8.68,0,0,1-9.24,11.39A94.28,94.28,0,0,1,508,325.37a64.19,64.19,0,0,1-13.32-6.22,8.74,8.74,0,0,1-1.05-14.3c5.07-4,12.35-5,22.94-1.87S532.62,311,535,317.51Z"/></g><g id="Layer_10" data-name="Layer 10"><polygon class="cls-19" points="468.39 492.08 451.66 489.98 456.11 550.42 471.74 551.06 468.39 492.08"/><path class="cls-20" d="M494.23,525.21c-.66,12.8-12.58,26.34-22.67,26.43a52.35,52.35,0,0,1-16.33-2.59A68.66,68.66,0,0,1,435.5,539c-8.15-6-6.12-26-.57-34.42,5.33-8.11,21.48-16.49,36.13-12.55C486.69,496.17,494.74,515.33,494.23,525.21Z"/><path class="cls-19" d="M478.56,523.91c-.67,12.8-12.58,26.35-22.67,26.43a52.45,52.45,0,0,1-16.34-2.59,68.84,68.84,0,0,1-19.72-10.09c-8.15-6-6.12-26-.58-34.43,5.33-8.11,21.48-16.48,36.14-12.55C471,494.88,479.07,514,478.56,523.91Z"/><rect class="cls-21" x="432.78" y="506.26" width="28.08" height="27.62" rx="4.36" transform="translate(711.18 1152.71) rotate(-162.01)"/><rect class="cls-22" x="429.64" y="506.35" width="28.08" height="27.62" rx="4.36" transform="translate(705.04 1151.92) rotate(-162.01)"/><line class="cls-23" x1="453.65" y1="536.26" x2="450.8" y2="536.42"/><line class="cls-23" x1="440.2" y1="503.7" x2="436.74" y2="503.85"/></g><g id="Layer_11" data-name="Layer 11"><path class="cls-24" d="M398.38,641.38c2.51,9,13.17,12.06,13.17,12.06s12.76,5.3,19.83-1.8"/><path class="cls-25" d="M384.44,605.21c-2.2,36.81,28,45.14,28,45.14s37.15,12,53-19.58"/><path class="cls-22" d="M430.48,599c-17.62-5.47-42.32-4-46,6.21-3.63,10,13.29,27.11,30.69,33.56,20.4,7.56,47.34,2.7,50.27-8C468.22,620.45,448.7,604.66,430.48,599Z"/><path class="cls-26" d="M429.26,603.54c-21.71-6.66-40.23-3.4-42.81,4.53-3,9.27,13.71,24.52,28.84,30.07,17.72,6.5,43.56,4.43,47.16-6.38C464.85,624.58,451.51,610.36,429.26,603.54Z"/><path class="cls-27" d="M456.9,627.25l-1.11,3.7-10.45,2.42s-12.42-8.42-14.5-16.08c0,0-2.43-3.66,2.15-9.71"/><path class="cls-28" d="M455.52,628.45l-5.73.74a1.27,1.27,0,0,0-.28.06l-3.61,1.08a1.69,1.69,0,0,1-1.51-.26c-2.31-1.72-9.7-7.53-12.06-13.13-2.8-6.66.66-9.36.66-9.36s10.58.34,16.27,6.38c4.86,5.16,6.91,8.87,7.72,12.45A1.71,1.71,0,0,1,455.52,628.45Z"/><path class="cls-29" d="M418.25,635.54a1.27,1.27,0,0,0,1.83-1c.45-3.63,2.22-14.87,2.07-16.13a8.78,8.78,0,0,0-.44-2.58,77.36,77.36,0,0,1-3.43-12.61.87.87,0,0,0-1-.8l-5.4.6a.88.88,0,0,0-.77,1c.44,2.23,3.52,11.26,4.06,15.46.42,3.31-2.09,7-2.23,12.34,0,.8.09,1,.88,1.6Z"/><path class="cls-30" d="M413.43,605.07s3.25,9.33,3.7,12.79-.48,6.1-1,8.62-1,6-1,6"/><path class="cls-30" d="M416.45,604.67s2.92,9.57,3.32,12.93-.58,6.87-1.11,9.39a58.37,58.37,0,0,0-.8,6.68"/><path class="cls-31" d="M402.83,600.9a.89.89,0,0,0-.85,1c.41,2.54,1.93,9.44,6.81,14.66,6.09,6.51,10.95,7.29,12.34,11.31,1.06,3.07.67,7.4.43,9.25a.87.87,0,0,0,.78,1l5.41.56a.89.89,0,0,0,1-.86c0-2.28,0-8.1-1.15-12.17-1.49-5.22-6.09-5.63-13.34-12.87-5.32-5.31-6-9.41-6-11.13a.87.87,0,0,0-.9-.88Z"/><path class="cls-30" d="M426.55,636.21c-.47-2.43,1-11.12-4.44-14.46-6.92-4.26-10.44-7.11-12.35-10.47a29.57,29.57,0,0,1-3.07-9"/><path class="cls-30" d="M424.24,636.2c-.31-2.5.74-9.27-4.6-13-5.65-4-9.31-7.14-11.26-9.86-1.72-2.41-4.33-9.27-4.42-11"/><path class="cls-31" d="M435.65,628.83a.89.89,0,0,0,.24-1.32c-1.63-2-6.38-7.23-13.2-9.33-8.52-2.63-13.13-.9-16.33-3.69-2.45-2.14-4.26-6.09-5-7.82a.88.88,0,0,0-1.17-.47l-5,2.21a.88.88,0,0,0-.42,1.23c1.1,2,4,7,7,10,3.89,3.79,8.08,1.86,18,4.54,7.26,2,9.85,5.2,10.7,6.7a.88.88,0,0,0,1.22.31Z"/><path class="cls-30" d="M433.87,628c-1.31-2.1-7.47-6.82-12.31-8.08-7.87-2.06-12.82-.6-15.82-3.05-2.3-1.88-4.87-6.4-5.57-7.95"/><path class="cls-30" d="M431.87,629.52c-1.19-2.22-5.43-5.63-11.78-7.21-6.7-1.67-12.46-1.17-15.25-3-2.49-1.63-6.49-7.76-7.19-9.31"/></g><g id="Layer_5" data-name="Layer 5"><line class="cls-32" x1="665.32" y1="481.51" x2="598.62" y2="434"/><line class="cls-32" x1="592.66" y1="435.2" x2="556.18" y2="481.21"/><line class="cls-33" x1="664.09" y1="492.55" x2="679.83" y2="570.53"/><path class="cls-34" d="M651.05,579.34l-16.76-82.93s-.57-6.09.21-9.28l-34.68-24.66-26.93,33.79"/></g><g id="Layer_12" data-name="Layer 12"><line class="cls-35" x1="395.35" y1="348.77" x2="423.88" y2="370.51"/><line class="cls-35" x1="355.47" y1="421.17" x2="411.2" y2="460.17"/><line class="cls-35" x1="341.98" y1="501.5" x2="389.46" y2="524.47"/><line class="cls-35" x1="323.53" y1="578.51" x2="362.29" y2="594.66"/><path class="cls-3" d="M413.54,390.66,380,365.3a23.67,23.67,0,0,1-5.51-25.66"/><path class="cls-3" d="M398.52,478.81l-58.19-40.15s-11.17-10.87-5.72-26.74"/><path class="cls-3" d="M382.55,546.15l-51.31-24.57s-14.74-9.38-11.44-25.67"/><path class="cls-3" d="M355.8,616.32l-41.43-17.18a23.67,23.67,0,0,1-13.2-22.69"/></g><g id="Layer_13" data-name="Layer 13"><circle class="cls-36" cx="500" cy="500" r="250.31"/><line class="cls-36" x1="355.96" y1="294.09" x2="644.04" y2="705.91"/></g></svg>